<?xml version="1.0" encoding="UTF-8" standalone="no"?>
<svg
   xmlns:dc="http://purl.org/dc/elements/1.1/"
   xmlns:cc="http://creativecommons.org/ns#"
   xmlns:rdf="http://www.w3.org/1999/02/22-rdf-syntax-ns#"
   xmlns:svg="http://www.w3.org/2000/svg"
   xmlns="http://www.w3.org/2000/svg"
   version="1.1"
   id="svg4244"
   viewBox="0 0 32 32.000001"
   height="32"
   width="32">
  <defs
     id="defs4246" />
  <metadata
     id="metadata4249">
    <rdf:RDF>
      <cc:Work
         rdf:about="">
        <dc:format>image/svg+xml</dc:format>
        <dc:type
           rdf:resource="http://purl.org/dc/dcmitype/StillImage" />
        <dc:title />
      </cc:Work>
    </rdf:RDF>
  </metadata>
  <g
     transform="translate(0,-1020.3622)"
     id="layer1">
    <g
       transform="translate(-4.2590071,-3.0333347)"
       id="g4783">
      <g
         id="g6729">
        <path
           style="fill:#b48966;fill-opacity:1;stroke:none;stroke-width:3;stroke-linecap:round;stroke-linejoin:round;stroke-opacity:1"
           d="m 18.259007,1044.3955 4,0 0,10 -4,0 z"
           id="rect5008" />
        <path
           id="path5016"
           d="m 20.692007,1024.6455 4.5,7 -0.433,0.75 -4.5,0 -4.5,0 -0.433,-0.75 4.5,-7 z"
           style="fill:#00c379;fill-opacity:1;stroke:none;stroke-width:3;stroke-linecap:round;stroke-linejoin:round;stroke-opacity:1" />
        <path
           id="path5018"
           d="m 19.825994,1024.6455 a 0.5,0.5 0 0 1 0.433013,-0.25 0.5,0.5 0 0 1 0.433013,0.25"
           style="fill:#00c379;fill-opacity:1;stroke:none;stroke-width:3;stroke-linecap:round;stroke-linejoin:round;stroke-opacity:1" />
        <path
           id="path5020"
           d="m 15.759007,1032.3955 a 0.5,0.5 0 0 1 -0.433013,-0.25 0.5,0.5 0 0 1 0,-0.5 l 0.433013,0.25 z"
           style="fill:#00c379;fill-opacity:1;stroke:none;stroke-width:3;stroke-linecap:round;stroke-linejoin:round;stroke-opacity:1" />
        <path
           id="path5022"
           d="m 24.759007,1032.3955 a 0.5,0.5 0 0 0 0.433013,-0.25 0.5,0.5 0 0 0 0,-0.5 l -0.433013,0.25 z"
           style="fill:#00c379;fill-opacity:1;stroke:none;stroke-width:3;stroke-linecap:round;stroke-linejoin:round;stroke-opacity:1" />
        <path
           style="fill:#00c379;fill-opacity:1;stroke:none;stroke-width:3;stroke-linecap:round;stroke-linejoin:round;stroke-opacity:1"
           d="m 20.865207,1028.5455 6.3,9.8 -0.6062,1.05 -6.3,0 -6.299999,0 -0.6062,-1.05 6.299999,-9.8 z"
           id="path5028" />
        <path
           style="fill:#00c379;fill-opacity:1;stroke:none;stroke-width:3;stroke-linecap:round;stroke-linejoin:round;stroke-opacity:1"
           d="m 19.652789,1028.5455 a 0.69999995,0.69999995 0 0 1 0.606218,-0.35 0.69999995,0.69999995 0 0 1 0.606218,0.35"
           id="path5030" />
        <path
           style="fill:#00c379;fill-opacity:1;stroke:none;stroke-width:3;stroke-linecap:round;stroke-linejoin:round;stroke-opacity:1"
           d="m 13.959008,1039.3955 a 0.69999995,0.69999995 0 0 1 -0.606219,-0.35 0.69999995,0.69999995 0 0 1 0,-0.7 l 0.606219,0.35 z"
           id="path5032" />
        <path
           style="fill:#00c379;fill-opacity:1;stroke:none;stroke-width:3;stroke-linecap:round;stroke-linejoin:round;stroke-opacity:1"
           d="m 26.559007,1039.3955 a 0.69999995,0.69999995 0 0 0 0.606218,-0.35 0.69999995,0.69999995 0 0 0 0,-0.7 l -0.606218,0.35 z"
           id="path5034" />
        <path
           id="path5040"
           d="m 21.038407,1032.4455 8.1,12.6 -0.7794,1.35 -8.1,0 -8.099999,0 -0.7794,-1.35 8.099999,-12.6 z"
           style="fill:#00c379;fill-opacity:1;stroke:none;stroke-width:3;stroke-linecap:round;stroke-linejoin:round;stroke-opacity:1" />
        <path
           id="path5042"
           d="m 19.479584,1032.4455 a 0.89999995,0.89999995 0 0 1 0.779423,-0.45 0.89999995,0.89999995 0 0 1 0.779423,0.45"
           style="fill:#00c379;fill-opacity:1;stroke:none;stroke-width:3;stroke-linecap:round;stroke-linejoin:round;stroke-opacity:1" />
        <path
           id="path5044"
           d="m 12.159008,1046.3955 a 0.89999995,0.89999995 0 0 1 -0.779424,-0.45 0.89999995,0.89999995 0 0 1 0,-0.9 l 0.779424,0.45 z"
           style="fill:#00c379;fill-opacity:1;stroke:none;stroke-width:3;stroke-linecap:round;stroke-linejoin:round;stroke-opacity:1" />
        <path
           id="path5046"
           d="m 28.359007,1046.3955 a 0.89999995,0.89999995 0 0 0 0.779423,-0.45 0.89999995,0.89999995 0 0 0 0,-0.9 l -0.779423,0.45 z"
           style="fill:#00c379;fill-opacity:1;stroke:none;stroke-width:3;stroke-linecap:round;stroke-linejoin:round;stroke-opacity:1" />
      </g>
    </g>
  </g>
</svg>
